Patient4_TMGait_0pt7_02_left_26_GRF.mot
version=1
nRows=71
nColumns=19
inDegrees=no
endheader
time	F1x	F1y	F1z	M1x	M1y	M1z	F2x	F2y	F2z	M2x	M2y	M2z	EC1x	EC1y	EC1z	EC2x	EC2y	EC2z
29.6	-18.6951	-11.0727	11.7449	0.19206	-12.8973	-10.3428	-25.2022	776.2253	-56.2094	300.7355	88.1791	907.1222	-0.0592	0.0182	-0.0073	-0.0462	0.0165	0.9585
29.6116	-12.4934	-6.5241	7.9523	-0.22999	-8.6965	-5.8783	-30.6623	773.6034	-59.1659	301.026	89.5286	900.2064	-0.0592	0.0182	-0.0073	-0.0462	0.0165	0.9585
29.6231	-7.2669	-2.6187	4.7192	-0.59749	-5.1305	-2.025	-34.9793	771.3578	-61.6375	301.2209	90.2712	893.2461	-0.0592	0.0182	-0.0073	-0.0462	0.0165	0.9585
29.6347	-3.2893	0.41325	2.2436	-0.89362	-2.408	0.96899	-37.8425	769.6163	-63.3894	301.2663	90.2674	886.5423	-0.0592	0.0182	-0.0073	-0.0462	0.0165	0.9585
29.6463	-0.56139	2.5657	0.53476	-1.1152	-0.53977	3.0863	-39.2221	768.2504	-64.3798	301.1006	89.5089	880.0457	-0.0592	0.0182	-0.0073	-0.0462	0.0165	0.9585
29.6579	1.0991	3.9412	-0.51302	-1.2666	0.59023	4.4197	-39.2464	766.9386	-64.6503	300.6351	88.0379	873.4638	-0.0592	0.0182	-0.0073	-0.0462	0.0165	0.9585
29.6694	1.944	4.6836	-1.0482	-1.354	1.1487	5.1272	-38.1284	765.2071	-64.3341	299.745	85.9731	866.316	-0.0592	0.0182	-0.0073	-0.0462	0.0165	0.9585
29.681	2.2209	4.9192	-1.2181	-1.3757	1.2987	5.3267	-36.1042	762.5686	-63.5953	298.2994	83.4687	858.0966	-0.0592	0.0182	-0.0073	-0.0462	0.0165	0.9585
29.6926	2.1264	4.733	-1.1553	-1.3184	1.1847	5.0862	-33.3816	758.6137	-62.6358	296.1935	80.7155	848.382	-0.0592	0.0182	-0.0073	-0.0462	0.0165	0.9585
29.7041	1.8381	4.1569	-0.96774	-1.1576	0.92903	4.4196	-30.1495	753.1271	-61.6309	293.3938	77.8862	836.9584	-0.0592	0.0182	-0.0073	-0.0462	0.0165	0.9585
29.7157	1.459	3.1605	-0.72189	-0.85794	0.60605	3.2677	-26.5591	746.1855	-60.7238	289.9716	75.1297	823.926	-0.0592	0.0182	-0.0073	-0.0462	0.0165	0.9585
29.7273	1.0807	1.7148	-0.46853	-0.3927	0.27841	1.5635	-22.7386	738.0921	-59.9844	286.087	72.5279	809.6368	-0.0592	0.0182	-0.0073	-0.0462	0.0165	0.9585
29.7389	0.76398	-0.20981	-0.2368	0.25492	-0.0081753	-0.74537	-18.7542	729.3382	-59.4176	281.9684	70.0901	794.6302	-0.0592	0.0182	-0.0073	-0.0462	0.0165	0.9585
29.7504	0.55871	-2.5696	-0.064014	1.0667	-0.19923	-3.623	-14.6232	720.5109	-58.9676	277.8755	67.7532	779.5331	-0.0592	0.0182	-0.0073	-0.0462	0.0165	0.9585
29.762	0.52462	-5.1779	0.020523	1.971	-0.23553	-6.8405	-10.3104	712.1769	-58.5755	274.053	65.4391	764.9454	-0.0592	0.0182	-0.0073	-0.0462	0.0165	0.9585
29.7736	0.73506	-7.612	-0.031827	2.812	-0.030015	-9.879	-5.75	704.8719	-58.1941	270.7168	63.075	751.4224	-0.0592	0.0182	-0.0073	-0.0462	0.0165	0.9585
29.7851	1.2541	-9.1191	-0.27647	3.3169	0.51524	-11.7974	-0.88262	698.9981	-57.8347	268.0185	60.6386	739.3841	-0.0592	0.0182	-0.0073	-0.0462	0.0165	0.9585
29.7967	2.1776	-8.5204	-0.78254	3.0658	1.5209	-11.1097	4.3229	694.8012	-57.5476	266.0382	58.1482	729.0941	-0.0592	0.0182	-0.0073	-0.0462	0.0165	0.9585
29.8083	3.5603	-4.1673	-1.627	1.4789	3.1022	-5.7476	9.8396	692.3316	-57.4163	264.7744	55.6745	720.62	-0.0592	0.0182	-0.0073	-0.0462	0.0165	0.9585
29.8199	5.4173	6.031	-2.8737	-2.1749	5.3438	6.9082	15.5506	691.4278	-57.5267	264.1436	53.3283	713.8223	-0.0592	0.0182	-0.0073	-0.0462	0.0165	0.9585
29.8314	7.6733	24.4226	-4.5366	-8.7144	8.2329	29.8269	21.2621	691.6764	-57.9019	263.9716	51.1915	708.3302	-0.0592	0.0182	-0.0073	-0.0462	0.0165	0.9585
29.843	10.0603	53.2172	-6.5365	-18.9043	11.5682	65.8104	26.7219	692.3657	-58.4809	263.9826	49.2925	703.4816	-0.0592	0.0182	-0.0073	-0.0462	0.0165	0.9585
29.8546	12.0684	93.7981	-8.6386	-33.2078	14.859	116.644	31.6472	692.471	-59.0728	263.7931	47.5601	698.324	-0.0592	0.0182	-0.0073	-0.0462	0.0165	0.9585
29.8661	12.8445	145.6352	-10.375	-51.4019	17.2031	181.7148	35.7788	690.6595	-59.3861	262.9105	45.8305	691.623	-0.0592	0.0182	-0.0073	-0.0462	0.0165	0.9585
29.8777	11.1532	204.876	-10.96	-72.0857	17.1803	256.2458	38.9079	685.363	-59.0564	260.7548	43.8504	681.9197	-0.0592	0.0182	-0.0073	-0.0462	0.0165	0.9585
29.8893	6.1208	263.5264	-9.3874	-92.4005	13.2695	330.2475	40.9194	674.9615	-57.7689	256.7231	41.3831	667.6862	-0.0592	0.0182	-0.0073	-0.0462	0.0165	0.9585
29.9009	-0.91106	311.1873	-4.8018	-108.7178	5.018	390.5089	41.7917	658.1114	-55.3651	250.3074	38.3144	647.6536	-0.0592	0.0182	-0.0073	-0.0462	0.0165	0.9585
29.9124	-7.4954	341.9968	2.0389	-119.0604	-5.7192	429.3156	41.6419	634.0607	-51.9644	241.2076	34.7434	621.0982	-0.0592	0.0182	-0.0073	-0.0462	0.0165	0.9585
29.924	-13.0798	358.2359	9.6514	-124.2719	-16.9768	449.3009	40.6883	602.9452	-47.9284	229.4332	30.9395	588.1584	-0.0592	0.0182	-0.0073	-0.0462	0.0165	0.9585
29.9356	-17.6861	366.7375	17.179	-126.7711	-27.686	459.0041	39.2645	565.5391	-43.7567	215.2404	27.2452	549.5504	-0.0592	0.0182	-0.0073	-0.0462	0.0165	0.9585
29.9471	-21.5951	374.3393	23.5697	-129.009	-36.7572	467.0723	37.6239	522.9953	-39.7805	199.0435	23.8599	506.3782	-0.0592	0.0182	-0.0073	-0.0462	0.0165	0.9585
29.9587	-25.0218	385.94	28.679	-132.706	-44.0397	479.7432	35.9238	476.5108	-36.0794	181.3027	20.7954	459.7692	-0.0592	0.0182	-0.0073	-0.0462	0.0165	0.9585
29.9703	-27.9049	403.716	32.1607	-138.6331	-49.1935	499.7073	34.0881	427.2868	-32.4922	162.4963	17.9334	410.9097	-0.0592	0.0182	-0.0073	-0.0462	0.0165	0.9585
29.9819	-30.2074	427.7095	34.5226	-146.7633	-52.7758	526.9994	31.9808	376.4871	-28.832	143.0954	15.1665	360.9319	-0.0592	0.0182	-0.0073	-0.0462	0.0165	0.9585
29.9934	-31.8076	457.0811	36.252	-156.7442	-55.3648	560.5335	29.3423	325.3221	-25.0166	123.5767	12.5093	311.0241	-0.0592	0.0182	-0.0073	-0.0462	0.0165	0.9585
30.005	-32.6273	490.5544	38.0914	-168.0639	-57.8075	598.7798	26.0375	275.0585	-21.1068	104.4338	10.0663	262.368	-0.0592	0.0182	-0.0073	-0.0462	0.0165	0.9585
30.0166	-32.7911	526.6396	40.6452	-180.1496	-60.846	639.8594	22.0511	227.1157	-17.3163	86.1964	8.0258	216.2893	-0.0592	0.0182	-0.0073	-0.0462	0.0165	0.9585
30.0281	-32.5687	563.6377	44.1627	-192.3972	-64.8602	681.6909	17.6019	182.8331	-13.8477	69.3699	6.4756	173.9667	-0.0592	0.0182	-0.0073	-0.0462	0.0165	0.9585
30.0397	-32.157	600.2658	48.6785	-204.3777	-69.9179	722.6761	13.0248	143.384	-10.901	54.3841	5.4573	136.4442	-0.0592	0.0182	-0.0073	-0.0462	0.0165	0.9585
30.0513	-31.5968	635.8235	53.7108	-215.9003	-75.4796	761.88	8.7396	109.4268	-8.5093	41.4888	4.8394	104.235	-0.0592	0.0182	-0.0073	-0.0462	0.0165	0.9585
30.0629	-30.8038	669.7765	58.9265	-226.8357	-81.0987	798.6467	5.0061	81.1351	-6.655	30.7462	4.4993	77.4585	-0.0592	0.0182	-0.0073	-0.0462	0.0165	0.9585
30.0744	-29.7563	701.4521	63.8062	-237.0134	-86.1724	832.1239	2.0229	58.2556	-5.2116	22.0627	4.2525	55.8201	-0.0592	0.0182	-0.0073	-0.0462	0.0165	0.9585
30.086	-28.4249	729.9838	68.1432	-246.1783	-90.4294	861.3382	-0.21682	40.2667	-4.0585	15.241	3.9892	38.8404	-0.0592	0.0182	-0.0073	-0.0462	0.0165	0.9585
30.0976	-26.7947	754.559	71.7578	-254.0831	-93.6615	885.39	-1.6874	26.5249	-3.0995	10.0389	3.62	25.8789	-0.0592	0.0182	-0.0073	-0.0462	0.0165	0.9585
30.1091	-24.9157	774.5534	74.6842	-260.5287	-95.9114	903.6176	-2.4835	16.4067	-2.2633	6.2148	3.1113	16.3621	-0.0592	0.0182	-0.0073	-0.0462	0.0165	0.9585
30.1207	-22.7953	789.6354	76.9823	-265.4104	-97.2474	915.716	-2.6553	9.3154	-1.5353	3.5421	2.4742	9.7036	-0.0592	0.0182	-0.0073	-0.0462	0.0165	0.9585
30.1323	-20.4324	799.8129	78.6747	-268.7318	-97.7081	921.7733	-2.402	4.7769	-0.92972	1.8304	1.7967	5.4685	-0.0592	0.0182	-0.0073	-0.0462	0.0165	0.9585
30.1439	-17.8363	805.3431	79.8327	-270.5839	-97.377	922.1676	-1.9384	2.2328	-0.47371	0.8689	1.1892	3.1017	-0.0592	0.0182	-0.0073	-0.0462	0.0165	0.9585
30.1554	-14.948	806.8505	80.3861	-271.1789	-96.185	917.6863	-1.4372	1.1516	-0.1581	0.45199	0.70618	2.1177	-0.0592	0.0182	-0.0073	-0.0462	0.0165	0.9585
30.167	-11.7584	805.1102	80.3921	-270.774	-94.2	909.3041	-0.97657	0.99292	0.042183	0.38218	0.35211	1.9945	-0.0592	0.0182	-0.0073	-0.0462	0.0165	0.9585
30.1786	-8.3005	800.9824	79.8333	-269.6474	-91.4375	898.0736	-0.62472	1.3752	0.14798	0.51396	0.12628	2.3968	-0.0592	0.0182	-0.0073	-0.0462	0.0165	0.9585
30.1901	-4.6279	795.2268	78.875	-268.0233	-88.1094	884.9645	-0.36035	1.9931	0.18719	0.73719	-0.0043788	3.0251	-0.0592	0.0182	-0.0073	-0.0462	0.0165	0.9585
30.2017	-0.90007	788.4342	77.6403	-266.0657	-84.4217	870.7317	-0.20716	2.6673	0.18033	0.98526	-0.056826	3.7181	-0.0592	0.0182	-0.0073	-0.0462	0.0165	0.9585
30.2133	2.7524	781.0801	76.3082	-263.8927	-80.6362	856.0072	-0.11258	3.2879	0.14517	1.2189	-0.06044	4.3504	-0.0592	0.0182	-0.0073	-0.0462	0.0165	0.9585
30.2249	6.2094	773.5211	75.0065	-261.5953	-76.9516	841.2783	-0.088672	3.8089	0.095205	1.4217	-0.025582	4.8911	-0.0592	0.0182	-0.0073	-0.0462	0.0165	0.9585
30.2364	9.3857	766.098	73.802	-259.2706	-73.4923	826.949	-0.090446	4.2107	0.041173	1.5885	0.027738	5.2974	-0.0592	0.0182	-0.0073	-0.0462	0.0165	0.9585
30.248	12.2566	759.1208	72.7716	-257.0167	-70.357	813.3881	-0.13198	4.519	-0.015088	1.7243	0.10225	5.6013	-0.0592	0.0182	-0.0073	-0.0462	0.0165	0.9585
30.2596	14.86	752.8595	71.8855	-254.9307	-67.5231	800.8652	-0.17712	4.7172	-0.071323	1.8234	0.1877	5.7725	-0.0592	0.0182	-0.0073	-0.0462	0.0165	0.9585
30.2711	17.2098	747.446	71.2081	-253.064	-65.0521	789.4844	-0.23442	4.8289	-0.12556	1.8868	0.28444	5.8544	-0.0592	0.0182	-0.0073	-0.0462	0.0165	0.9585
30.2827	19.3819	742.8822	70.667	-251.43	-62.8622	779.2146	-0.27638	4.8107	-0.1731	1.8957	0.37942	5.784	-0.0592	0.0182	-0.0073	-0.0462	0.0165	0.9585
30.2943	21.4237	739.0684	70.3023	-250.0032	-60.9734	769.934	-0.31507	4.6099	-0.20905	1.8251	0.46503	5.5055	-0.0592	0.0182	-0.0073	-0.0462	0.0165	0.9585
30.3059	23.4054	735.8759	70.0376	-248.7559	-59.2911	761.47	-0.33376	4.1088	-0.23703	1.6315	0.5305	4.8597	-0.0592	0.0182	-0.0073	-0.0462	0.0165	0.9585
30.3174	25.3988	733.2022	69.892	-247.6566	-57.8059	753.7186	-0.35086	3.1774	-0.25117	1.2646	0.56425	3.6968	-0.0592	0.0182	-0.0073	-0.0462	0.0165	0.9585
30.329	27.4419	730.9859	69.8138	-246.6811	-56.4547	746.6062	-0.31858	1.6541	-0.24515	0.6652	0.53946	1.8077	-0.0592	0.0182	-0.0073	-0.0462	0.0165	0.9585
30.3406	29.5632	729.1598	69.8065	-245.7922	-55.2255	740.0817	-0.2302	-0.5777	-0.20183	-0.21209	0.4293	-0.93409	-0.0592	0.0182	-0.0073	-0.0462	0.0165	0.9585
30.3521	31.7933	727.6544	69.8857	-244.9479	-54.1158	734.078	-0.02459	-3.5754	-0.1122	-1.3851	0.20663	-4.6074	-0.0592	0.0182	-0.0073	-0.0462	0.0165	0.9585
30.3637	34.1434	726.3444	70.0777	-244.0908	-53.1334	728.4377	0.32205	-7.1908	0.035673	-2.7987	-0.14768	-9.0255	-0.0592	0.0182	-0.0073	-0.0462	0.0165	0.9585
30.3753	36.6548	725.0411	70.4537	-243.1424	-52.3226	722.9598	0.86798	-11.0348	0.24751	-4.2953	-0.65547	-13.7258	-0.0592	0.0182	-0.0073	-0.0462	0.0165	0.9585
30.3869	39.3607	723.4675	71.0224	-242.0013	-51.6684	717.3495	1.6047	-14.2698	0.51257	-5.5464	-1.3021	-17.6751	-0.0592	0.0182	-0.0073	-0.0462	0.0165	0.9585
30.3984	42.2508	721.2064	71.8137	-240.5266	-51.1907	711.1965	2.5335	-15.5353	0.80494	-6.0137	-2.0467	-19.2101	-0.0592	0.0182	-0.0073	-0.0462	0.0165	0.9585
30.41	45.2967	717.7643	72.7507	-238.5633	-50.8277	704.048	3.5317	-12.7798	1.0722	-4.8933	-2.7733	-15.7788	-0.0592	0.0182	-0.0073	-0.0462	0.0165	0.9585
